<?xml version="1.0" encoding="utf-8"?>
<!-- Generator: Adobe Illustrator 21.0.0, SVG Export Plug-In . SVG Version: 6.00 Build 0)  -->
<svg version="1.1" id="Layer_1" xmlns="http://www.w3.org/2000/svg" xmlns:xlink="http://www.w3.org/1999/xlink" x="0px" y="0px"
	 viewBox="0 0 512 512" style="enable-background:new 0 0 512 512;" xml:space="preserve">
<style type="text/css">
	.st0{fill:#71CCE0;}
	.st1{fill:#DFDFDF;}
	.st2{fill:#4A555F;}
	.st3{fill:#FFD452;}
	.st4{fill:#F58E6F;}
	.st5{fill:#FFFFFF;}
	.st6{fill:none;}
</style>
<g>
	<g>
		<g>
			<path class="st2" d="M436.577,398.53l-2.262,2.073c-24.513,22.472-74.817,67.064-86.036,76.999l-135.703-129.56l-2.245,2.599
				c-12.72,14.737-26.422,29.077-39.671,42.946c-15.428,16.147-31.356,32.818-45.961,50.342L71.303,391.39l-2.29,2.37
				c-8.631,8.934-21.806,22.323-34.549,35.27C21.762,441.938,8.627,455.286,0,464.213l4.698,4.539
				c8.604-8.906,21.729-22.243,34.422-35.14c11.671-11.861,23.709-24.091,32.298-32.946l53.785,52.92l2.267-2.762
				c15.062-18.344,31.762-35.823,47.913-52.726c12.531-13.116,25.463-26.651,37.643-40.598l135.086,128.971l2.25-1.989
				c0.586-0.521,57.622-50.982,86.104-76.993l71.007,68.378l4.528-4.705L436.577,398.53z"/>
		</g>
	</g>
	<g>
		<g>
			<polygon class="st0" points="437.529,417.388 356.723,490.953 348.722,498.237 340.884,490.776 213.373,369.363 133.519,456.598 
				125.384,465.486 116.795,457.035 71.573,412.539 2.35,484.185 2.35,508.572 507.927,508.572 507.927,487.505 			"/>
		</g>
	</g>
	<g>
		<g>
			<g>
				<path class="st2" d="M442.749,149.754c-7.641-12.825-23.919-17.32-37.06-10.237l-7.606,4.101
					c-10.362,5.591-22.957,4.387-32.075-3.064l-17.603-14.382c-16.019-13.089-36.233-20.297-56.918-20.297H119.159
					c-13.415,0-24.581,10.145-25.42,23.095c-0.448,6.924,1.907,13.514,6.633,18.556c4.66,4.972,11.238,7.823,18.049,7.823h79.214
					c8.121,0,14.729,6.608,14.729,14.729v60.72l-28.211,19.423c-18.855,12.98-30.112,34.397-30.112,57.29v28.745
					c0,13.737,10.387,25.17,23.649,26.031c7.064,0.451,13.833-1.954,18.998-6.792c5.092-4.772,8.011-11.509,8.011-18.483v-18.704
					c0-11.636,6.157-22.654,16.07-28.753l31.615-19.449c2.866-1.762,6.335-1.847,9.282-0.228c2.947,1.62,4.732,4.595,4.779,7.958
					l1.446,104.621c0.221,15.958,12.994,29.117,28.475,29.335c0.14,0.002,0.281,0.003,0.421,0.003
					c7.641-0.001,14.827-2.945,20.275-8.316c5.549-5.471,8.604-12.775,8.604-20.567V177.019l23.469,16.749
					c19.91,14.21,46.495,15.538,67.731,3.38l15.819-9.061c6.521-3.733,11.162-9.791,13.068-17.058
					C447.66,163.763,446.592,156.207,442.749,149.754z M439.434,169.371c-1.458,5.558-5.009,10.193-9.994,13.048l-15.819,9.061
					c-19.027,10.895-42.849,9.705-60.694-3.03l-33.792-24.116v218.577c0,6.029-2.364,11.682-6.658,15.916
					c-4.292,4.233-10.058,6.525-16.017,6.432c-11.98-0.168-21.866-10.438-22.038-22.894l-1.446-104.621
					c-0.079-5.743-3.131-10.824-8.164-13.591c-2.4-1.32-5.004-1.977-7.603-1.977c-2.849,0-5.689,0.791-8.249,2.365l-31.615,19.449
					c-11.829,7.278-19.179,20.427-19.179,34.315v18.704c0,5.252-2.111,10.124-5.946,13.718c-3.829,3.591-8.835,5.382-14.11,5.039
					c-9.835-0.637-17.54-9.208-17.54-19.512v-28.745c0-20.743,10.201-40.149,27.285-51.911l31.04-21.368v-64.153
					c0-11.723-9.537-21.26-21.26-21.26h-79.214c-5.085,0-9.805-2.045-13.285-5.758c-3.476-3.71-5.211-8.563-4.879-13.666
					c0.616-9.525,8.92-16.988,18.902-16.988h172.327c19.185,0,37.929,6.685,52.786,18.823l17.603,14.382
					c11.176,9.132,26.606,10.606,39.307,3.756l7.606-4.101c10.05-5.418,22.506-1.98,28.348,7.83
					C440.078,158.032,440.895,163.813,439.434,169.371z"/>
			</g>
		</g>
	</g>
	<g>
		<g>
			<path class="st1" d="M429.961,157.373c-2.352-3.945-6.503-6.301-11.102-6.301c-2.143,0-4.197,0.521-6.106,1.55l-7.606,4.099
				c-6.374,3.438-13.569,5.255-20.808,5.255c-10.087,0.001-19.942-3.514-27.75-9.894l-17.603-14.381
				c-13.369-10.923-30.238-16.939-47.5-16.939H119.158c-5.498,0-10.235,4.114-10.564,9.17c-0.179,2.774,0.758,5.406,2.64,7.413
				c1.884,2.01,4.438,3.117,7.189,3.117h79.212c16.331,0,29.616,13.285,29.616,29.615v68.546l-34.655,23.857
				c-14.822,10.205-23.67,27.038-23.67,45.03v28.745c0,5.814,4.363,10.826,9.724,11.173c0.241,0.016,0.479,0.024,0.717,0.024
				c5.758,0,10.443-4.684,10.443-10.441v-18.704c0-16.769,8.873-32.644,23.154-41.432l31.619-19.451
				c3.822-2.352,8.183-3.594,12.609-3.594c13.128,0,23.958,10.677,24.14,23.801l1.443,104.618c0.109,7.976,6.301,14.552,13.8,14.657
				l0.207,0.001c7.718,0,13.996-6.278,13.996-13.996V148.108l47.003,33.542c8.178,5.836,17.812,8.919,27.862,8.921
				c8.341,0,16.581-2.193,23.821-6.341l15.823-9.061c3.026-1.733,5.18-4.545,6.065-7.917
				C432.24,163.877,431.743,160.369,429.961,157.373z"/>
		</g>
	</g>
	<g>
		<g>
			<g>
				<path class="st2" d="M114.828,3.428v108.977h22.607V3.428H114.828z M130.905,105.875h-9.546V9.959h9.546V105.875z"/>
			</g>
		</g>
	</g>
	<g>
		<g>
			<g>
				<path class="st2" d="M114.828,148.715v17.281h22.607v-17.281H114.828z M130.905,159.465h-9.546v-4.219h9.546V159.465z"/>
			</g>
		</g>
	</g>
	<g>
		<g>
			<polygon class="st4" points="198.546,6.694 134.169,6.694 134.169,53.956 198.546,53.956 176.158,30.076 			"/>
		</g>
	</g>
	<g>
		<g>
			<g>
				<path class="st2" d="M206.194,3.428h-75.289v53.793h75.181L180.657,30.1L206.194,3.428z M191.008,50.691h-53.572V9.959h53.464
					l-19.24,20.094L191.008,50.691z"/>
			</g>
		</g>
	</g>
	<g>
		<g>
			<g>
				<path class="st2" d="M270.177,27.06c-23.53,0-42.675,19.143-42.675,42.674c0,23.529,19.145,42.672,42.675,42.672
					c23.53,0,42.672-19.143,42.672-42.672C312.85,46.203,293.707,27.06,270.177,27.06z M270.177,105.875
					c-19.929,0-36.144-16.213-36.144-36.141s16.215-36.143,36.144-36.143c19.929,0,36.141,16.214,36.141,36.143
					S290.106,105.875,270.177,105.875z"/>
			</g>
		</g>
	</g>
	<g>
		<g>
			<path class="st3" d="M270.178,41.946c-15.321,0-27.788,12.465-27.788,27.787c0,15.321,12.466,27.786,27.788,27.786
				c15.321,0,27.785-12.465,27.785-27.786C297.962,54.411,285.499,41.946,270.178,41.946z"/>
		</g>
	</g>
</g>
</svg>
