<?xml version="1.0" encoding="UTF-8"?>
<!DOCTYPE svg PUBLIC "-//W3C//DTD SVG 1.1//EN" "http://www.w3.org/Graphics/SVG/1.1/DTD/svg11.dtd">
<!-- Creator: CorelDRAW -->
<svg xmlns="http://www.w3.org/2000/svg" xml:space="preserve" width="2048px" height="2048px" style="shape-rendering:geometricPrecision; text-rendering:geometricPrecision; image-rendering:optimizeQuality; fill-rule:evenodd; clip-rule:evenodd"
viewBox="0 0 2048 2048"
 xmlns:xlink="http://www.w3.org/1999/xlink">
 <defs>
  <style type="text/css">
   <![CDATA[
    .fil2 {fill:none}
    .fil1 {fill:#424242}
    .fil0 {fill:#424242;fill-rule:nonzero}
   ]]>
  </style>
 </defs>
 <g id="Layer_x0020_1">
  <metadata id="CorelCorpID_0Corel-Layer"/>
  <g id="_387360816">
   <path id="_387362496" class="fil0" d="M1088.65 1508.17c157.407,0 300.607,24.1866 404.881,63.2882 113.692,42.6355 184.015,105.204 184.015,177.597 0,2.03504 -0.106299,4.5626 -0.314173,7.58032 -0.15,2.20748 -0.422835,4.72914 -0.807875,7.54843l-31.7008 -4.26024 31.7811 4.34882c-2.21693,16.1977 -16.1693,27.9071 -32.1024,27.7299l-1111.82 0c-17.165,0 -31.1823,-13.4847 -32.0362,-30.4394 -0.211417,-1.78347 -0.370866,-3.42874 -0.472441,-4.92756 -0.207874,-3.01772 -0.314173,-5.54528 -0.314173,-7.58032 0,-72.3922 70.3229,-134.961 184.015,-177.597 104.274,-39.1016 247.474,-63.2882 404.881,-63.2882z"/>
   <path id="_387362112" class="fil1" d="M1026.89 1569.05c3.23504,-151.784 -15.2421,-461.478 47.7355,-587.622 19.0181,-38.0918 37.4067,-60.4075 56.2819,-107.896 37.1339,-93.4253 54.7028,-182.068 26.0492,-280.609 -10.7539,-36.9851 -33.7985,-145.759 -66.8812,-179.725 -35.3764,-36.3307 7.65119,-22.3784 24.7677,-11.5335 42.4784,26.9126 109.951,175.876 123.086,218.89 34.2709,112.234 2.8311,265.872 -44.1933,370.74l-24.9827 49.2579c-25.4551,72.8363 4.43504,426.255 8.49922,528.498l-150.363 0z"/>
   <path id="_387361608" class="fil1" d="M1061.28 1273.02c2.27008,-50.7874 -25.8473,-130.488 -36.0969,-179.672 -16.5839,-13.2709 -26.4992,-31.3961 -59.4284,-52.337 -174.676,-111.078 -451.812,-188.391 -545.247,-387.244 -33.2055,-70.669 -58.1989,-49.7835 -25.1693,-152.297l0.0472441 0c1.45866,3.83859 23.8855,73.4398 28.7315,78.6119 21.815,23.2795 17.3469,9.29646 46.3418,49.767 93.3591,130.309 327.411,199.989 472.081,261.408 70.1906,29.7992 113.042,45.6272 159.986,93.5044 81.3249,40.6335 43.3654,211.412 44.9622,288.259l-86.2087 0zm-27.5622 -173.72c5.7626,4.81063 10.6618,6.13819 22.8307,9.46418 -9.38032,-2.59134 -16.6748,-5.76969 -22.8307,-9.46418z"/>
   <path id="_387361320" class="fil1" d="M611.563 821.487c-101.263,39.7985 -202.329,-33.5268 -251.284,5.77323 -5.80985,-5.96103 -7.03583,-4.87441 -6.58465,-12.8162 3.37205,-59.3044 188.842,-38.674 216.414,-61.6028l41.4555 68.6457z"/>
   <path id="_387361488" class="fil1" d="M1066.95 1223.48c163.458,-168.167 123.071,-263.04 403.977,-330.298 32.9835,-7.89804 40.3441,2.53937 74.3705,-26.2512 62.6398,-53.0008 98.5123,-144.421 131.149,-174.176l17.9469 -10.8095 -5.21575 18.398 -10.9453 30.9851c-36.7618,99.306 -79.2591,204.356 -192.784,221.49l8.80867 -1.22599c-118.948,40.5024 -175.539,67.1044 -242.145,178.101 -43.6252,72.6981 -56.6434,98.0198 -113.13,163.499l-72.0319 -69.7123z"/>
   <path id="_387361752" class="fil1" d="M1401.1 926.221c-38.2441,-125.391 2.99055,-191.26 87.5812,-290.326l30.5681 -34.4339 34.7977 -29.7898 0.00944883 0.00708662 -12.0236 44.9339c-43.3205,112.807 -120.481,153.258 -65.5831,282.162l-75.3497 27.4465z"/>
   <path id="_387361896" class="fil1" d="M1172.96 579.121c24.3036,-104.512 83.5512,-290.22 203.643,-316.033 53.2052,-11.4343 108.956,-7.9689 161.521,2.81811 -65.7201,22.3902 -12.411,6.2563 -98.6091,26.824 -60.0237,14.3197 -64.3914,7.27678 -96.2339,48.1926 -61.5024,79.0229 -91.3938,233.789 -105.976,329.75l-64.3453 -91.552z"/>
  </g>
 </g>
 <rect class="fil2" width="2048" height="2048"/>
</svg>
