<?xml version="1.0" encoding="utf-8"?>
<!-- Generator: Adobe Illustrator 24.0.0, SVG Export Plug-In . SVG Version: 6.00 Build 0)  -->
<svg version="1.1" id="Layer_1" xmlns="http://www.w3.org/2000/svg" xmlns:xlink="http://www.w3.org/1999/xlink" x="0px" y="0px"
	 viewBox="0 0 256 256" enable-background="new 0 0 256 256" xml:space="preserve">
<g>
</g>
<g>
	<path fill="#72C2E9" d="M58.629,99v141.5c0,5.683,4.607,10.29,10.29,10.29h118.163c5.683,0,10.29-4.607,10.29-10.29V99
		c0-11.366-9.214-20.58-20.58-20.58H79.208C67.842,78.42,58.629,87.634,58.629,99z"/>
	<rect x="86.07" y="54.6" fill="#EEEEEE" width="83.86" height="23.82"/>
	<rect x="86.07" y="71.42" fill="#AEAEAE" width="83.86" height="7"/>
	<rect x="86.07" y="54.6" fill="#AEAEAE" width="83.86" height="7"/>
	<path fill="#72C2E9" d="M176.851,27.734H79.149c-2.761,0-5,2.239-5,5v16.865c0,2.761,2.239,5,5,5h97.701c2.761,0,5-2.239,5-5
		V32.734C181.851,29.972,179.612,27.734,176.851,27.734z"/>
	<path fill="#868686" d="M159.384,15.5v12.235h-10.29V15.5h-42.189v12.235h-10.29V15.5c0-5.683,4.607-10.29,10.29-10.29h42.189
		C154.777,5.21,159.384,9.817,159.384,15.5z"/>
	<path fill="#EFBF27" d="M165.89,133.818H90.11c-5.523,0-10,4.477-10,10V186c0,5.523,4.477,10,10,10h75.781c5.523,0,10-4.477,10-10
		v-42.182C175.89,138.295,171.413,133.818,165.89,133.818z"/>
	<path fill="#F0C020" d="M233.189,164.602c-3.961-1.309-8.051-2.453-10.348-12.345c-2.115,9.112-5.504,10.745-10.348,12.345
		c7.9,2.61,9.092,6.933,10.348,12.345C225.006,167.617,228.587,166.122,233.189,164.602z"/>
	<path d="M220.251,177.548c-1.147-4.945-1.905-8.212-8.591-10.421c-2.43-0.803-2.424-4.25,0-5.051
		c4.025-1.33,6.684-2.209,8.591-10.422c0.633-2.73,4.546-2.737,5.181,0c1.95,8.399,4.863,9.193,8.591,10.421
		c2.43,0.803,2.424,4.25,0,5.051c-3.881,1.282-6.686,2.209-8.591,10.421C224.796,180.29,220.888,180.291,220.251,177.548z
		 M218.731,164.663c1.914,1.314,3.222,2.815,4.164,4.403c1.141-2.017,2.462-3.405,3.934-4.439c-1.411-1.01-2.778-2.44-3.977-4.601
		C221.665,162.159,220.279,163.6,218.731,164.663z"/>
	<path fill="#F0C020" d="M43.506,164.602c-3.961-1.309-8.051-2.453-10.348-12.345c-2.115,9.112-5.504,10.745-10.348,12.345
		c7.9,2.61,9.092,6.933,10.348,12.345C35.323,167.617,38.904,166.122,43.506,164.602z"/>
	<path d="M30.567,177.548c-1.147-4.945-1.905-8.212-8.591-10.421c-2.43-0.803-2.424-4.25,0-5.051
		c4.025-1.33,6.684-2.209,8.591-10.422c0.633-2.73,4.546-2.737,5.181,0c1.95,8.399,4.863,9.193,8.591,10.421
		c2.43,0.803,2.424,4.25,0,5.051c-3.881,1.282-6.686,2.209-8.591,10.421C35.112,180.29,31.205,180.291,30.567,177.548z
		 M29.047,164.663c1.914,1.314,3.222,2.815,4.164,4.403c1.141-2.017,2.462-3.405,3.934-4.439c-1.411-1.01-2.778-2.44-3.977-4.601
		C31.982,162.159,30.596,163.6,29.047,164.663z"/>
	<path fill="#C5E5FE" d="M187.082,243.29H81.463c-1.381,0-2.5-1.119-2.5-2.5s1.119-2.5,2.5-2.5h103.409V99
		c0-4.455-3.625-8.08-8.08-8.08c-1.381,0-2.5-1.119-2.5-2.5s1.119-2.5,2.5-2.5c7.212,0,13.08,5.868,13.08,13.08v141.5
		C189.872,242.038,188.62,243.29,187.082,243.29z M71.463,243.29h-2.544c-1.539,0-2.79-1.252-2.79-2.79c0-1.381,1.119-2.5,2.5-2.5
		l2.834,0.29c1.381,0,2.5,1.119,2.5,2.5S72.844,243.29,71.463,243.29z"/>
	<path fill="#C5E5FE" d="M171.851,47.099H97.149c-1.381,0-2.5-1.119-2.5-2.5s1.119-2.5,2.5-2.5h72.201v-4.365
		c0-1.381,1.119-2.5,2.5-2.5s2.5,1.119,2.5,2.5v6.865C174.351,45.979,173.231,47.099,171.851,47.099z M87.149,47.099h-3
		c-1.381,0-2.5-1.119-2.5-2.5s1.119-2.5,2.5-2.5h3c1.381,0,2.5,1.119,2.5,2.5S88.53,47.099,87.149,47.099z"/>
	<path d="M56.13,240.5c0,7.05,5.74,12.79,12.79,12.79h118.16c7.05,0,12.79-5.74,12.79-12.79V99c0-12.73-10.35-23.08-23.08-23.08
		h-4.36V57.1h4.42c4.13,0,7.5-3.37,7.5-7.5v-16.87c0-4.13-3.37-7.489-7.5-7.5h-14.97V15.5c0-7.05-5.74-12.79-12.78-12.79h-42.19
		c-7.05,0-12.79,5.74-12.79,12.79v9.729H79.15c-4.13,0.011-7.5,3.37-7.5,7.5V49.6c0,4.13,3.37,7.5,7.5,7.5h4.42v18.82h-4.36
		c-12.73,0-23.08,10.35-23.08,23.08v110c0,1.38,1.12,2.5,2.5,2.5s2.5-1.12,2.5-2.5V99c0.02-9.95,8.13-18.061,18.08-18.08h97.58
		c9.95,0.02,18.06,8.13,18.08,18.08v141.5c-0.01,4.29-3.5,7.78-7.79,7.79H68.92c-4.29-0.01-7.78-3.5-7.79-7.79V229
		c0-1.38-1.12-2.5-2.5-2.5s-2.5,1.12-2.5,2.5V240.5z M99.11,15.5c0.01-4.29,3.51-7.78,7.8-7.79h42.19c4.28,0.01,7.78,3.5,7.79,7.79
		v9.729h-5.3V15.5c0-1.387-1.12-2.5-2.49-2.5h-42.19c-1.362,0-2.5,1.093-2.5,2.5v9.729h-5.3V15.5z M146.59,18v7.229h-37.18V18
		H146.59z M167.43,75.92H88.57V57.1h40.3c1.38,0,2.5-1.12,2.5-2.5s-1.12-2.5-2.5-2.5H79.15c-1.38,0-2.5-1.13-2.5-2.5v-16.87
		c0-1.37,1.12-2.5,2.5-2.5c11.026,0,86.655,0,97.7,0c1.38,0,2.5,1.13,2.5,2.5V49.6c0,1.37-1.12,2.5-2.5,2.5h-27.98
		c-1.38,0-2.5,1.12-2.5,2.5s1.12,2.5,2.5,2.5h0.01h18.55V75.92z"/>
	<circle cx="58.63" cy="219" r="2.5"/>
	<circle cx="138.87" cy="54.6" r="2.5"/>
	<circle cx="150.72" cy="196" r="2.5"/>
	<path d="M160.72,198.5h5.17c6.89,0,12.5-5.61,12.5-12.5v-42.181c0-6.89-5.61-12.5-12.5-12.5H90.11c-6.89,0-12.5,5.61-12.5,12.5V186
		c0,6.89,5.61,12.5,12.5,12.5h50.61c1.38,0,2.5-1.12,2.5-2.5s-1.12-2.5-2.5-2.5H90.11c-4.13-0.01-7.49-3.37-7.5-7.5v-42.181
		c0.01-4.13,3.37-7.489,7.5-7.5h75.78c4.13,0.011,7.49,3.37,7.5,7.5V186c-0.01,4.13-3.37,7.49-7.5,7.5h-5.17
		c-1.38,0-2.5,1.12-2.5,2.5S159.34,198.5,160.72,198.5z"/>
	<path d="M117.972,159.66v10.497c0,5.529,4.499,10.028,10.028,10.028s10.028-4.499,10.028-10.028V159.66
		c0-5.529-4.499-10.028-10.028-10.028S117.972,154.131,117.972,159.66z M133.028,159.66v10.497c0,2.772-2.256,5.028-5.028,5.028
		s-5.028-2.256-5.028-5.028V159.66c0-2.772,2.256-5.028,5.028-5.028S133.028,156.888,133.028,159.66z"/>
	<path d="M108.806,161.702c1.381,0,2.5-1.119,2.5-2.5v-1.24c0-4.593-3.737-8.33-8.331-8.33h-3.396c-4.593,0-8.331,3.737-8.331,8.33
		v13.895c0,4.594,3.737,8.331,8.331,8.331h3.396c4.593,0,8.331-3.737,8.331-8.331v-1.24c0-1.381-1.119-2.5-2.5-2.5
		s-2.5,1.119-2.5,2.5v1.24c0,1.837-1.494,3.331-3.331,3.331h-3.396c-1.836,0-3.331-1.494-3.331-3.331v-13.895
		c0-1.836,1.494-3.33,3.331-3.33h3.396c1.836,0,3.331,1.494,3.331,3.33v1.24C106.306,160.583,107.425,161.702,108.806,161.702z"/>
	<path d="M164.751,177.686c0-1.381-1.119-2.5-2.5-2.5h-12.557v-1.051c0-3.269,3.458-6.727,6.726-6.727
		c4.593,0,8.331-3.737,8.331-8.33v-1.116c0-4.593-3.737-8.33-8.331-8.33h-3.396c-4.593,0-8.331,3.737-8.331,8.33
		c0,1.381,1.119,2.5,2.5,2.5s2.5-1.119,2.5-2.5c0-1.836,1.494-3.33,3.331-3.33h3.396c1.836,0,3.331,1.494,3.331,3.33v1.116
		c0,1.836-1.494,3.33-3.331,3.33c-6.027,0-11.726,5.699-11.726,11.727v3.551c0,1.381,1.119,2.5,2.5,2.5h15.057
		C163.632,180.186,164.751,179.066,164.751,177.686z"/>
</g>
</svg>
