<?xml version="1.0" encoding="utf-8"?>
<!-- Generator: Adobe Illustrator 24.0.0, SVG Export Plug-In . SVG Version: 6.00 Build 0)  -->
<svg version="1.1" id="Layer_1" xmlns="http://www.w3.org/2000/svg" xmlns:xlink="http://www.w3.org/1999/xlink" x="0px" y="0px"
	 viewBox="0 0 256 256" enable-background="new 0 0 256 256" xml:space="preserve">
<g>
</g>
<g>
	<path fill="#FFB69F" d="M118.92,185.854c0,5.04-1.89,9.65-5.02,13.14c-3.61,4.06-8.87,6.61-14.73,6.61
		c-5.86,0-11.13-2.55-14.74-6.61c-3.12-3.49-5.01-8.1-5.01-13.14c0-10.91,8.84-19.75,19.75-19.75
		C110.07,166.104,118.92,174.944,118.92,185.854z"/>
	<path fill="#8B71E7" d="M128,218.104v25.492H70.33v-25.492c0-9,5.94-16.6,14.1-19.11c3.61,4.06,8.88,6.61,14.74,6.61
		c5.86,0,11.12-2.55,14.73-6.61C122.07,201.504,128,209.104,128,218.104z"/>
	<path fill="#FFB69F" d="M176.58,185.854c0,5.04-1.89,9.65-5.01,13.14c-3.61,4.06-8.88,6.61-14.74,6.61
		c-5.86,0-11.12-2.55-14.73-6.61c-3.13-3.49-5.02-8.1-5.02-13.14c0-10.91,8.85-19.75,19.75-19.75
		C167.74,166.104,176.58,174.944,176.58,185.854z"/>
	<path fill="#AFAFAF" d="M104.561,116.269v26.172c0,3.374,2.739,6.113,6.113,6.113h34.649c3.374,0,6.113-2.739,6.113-6.113v-26.172
		H104.561z"/>
	<path fill="#F0C020" d="M177.09,57.815c0,19.232-10.013,31.141-17.936,37.779c-4.829,4.047-7.715,9.964-7.715,16.273v4.401h-46.876
		v-4.218c0-6.419-2.91-12.446-7.825-16.567c-8.241-6.908-18.645-19.44-17.777-39.784C80.027,29.975,101.534,8.758,128,8.728
		C154.856,8.697,177.09,30.548,177.09,57.815z"/>
	<path fill="#13BF6D" d="M148.022,66.061c0,11.058-8.964,20.022-20.022,20.022s-20.022-8.964-20.022-20.022S128,31.06,128,31.06
		S148.022,55.003,148.022,66.061z"/>
	<path fill="#F0C020" d="M198.119,116.266c-3.961-1.309-8.051-2.453-10.348-12.345c-2.115,9.112-5.504,10.745-10.348,12.345
		c7.9,2.61,9.092,6.933,10.348,12.345C189.936,119.281,193.517,117.786,198.119,116.266z"/>
	<path d="M185.181,129.212c-1.147-4.945-1.905-8.212-8.591-10.421c-2.43-0.803-2.424-4.25,0-5.051
		c4.025-1.33,6.684-2.209,8.591-10.422c0.633-2.73,4.546-2.737,5.181,0c1.95,8.399,4.863,9.193,8.591,10.421
		c2.43,0.803,2.424,4.25,0,5.051c-3.881,1.282-6.686,2.209-8.591,10.421C189.726,131.954,185.818,131.955,185.181,129.212z
		 M183.661,116.327c1.914,1.314,3.222,2.815,4.164,4.403c1.141-2.017,2.462-3.405,3.934-4.439c-1.411-1.01-2.778-2.44-3.977-4.601
		C186.595,113.823,185.209,115.264,183.661,116.327z"/>
	<path fill="#F0C020" d="M78.576,116.266c-3.961-1.309-8.051-2.453-10.348-12.345c-2.115,9.112-5.504,10.745-10.348,12.345
		c7.9,2.61,9.092,6.933,10.348,12.345C70.393,119.281,73.974,117.786,78.576,116.266z"/>
	<path d="M65.637,129.212c-1.147-4.945-1.905-8.212-8.591-10.421c-2.43-0.803-2.424-4.25,0-5.051
		c4.025-1.33,6.684-2.209,8.591-10.422c0.633-2.73,4.546-2.737,5.181,0c1.95,8.399,4.863,9.193,8.591,10.421
		c2.43,0.803,2.424,4.25,0,5.051c-3.881,1.282-6.686,2.209-8.591,10.421C70.182,131.954,66.274,131.955,65.637,129.212z
		 M64.117,116.327c1.914,1.314,3.222,2.815,4.164,4.403c1.141-2.017,2.462-3.405,3.934-4.439c-1.411-1.01-2.778-2.44-3.977-4.601
		C67.052,113.823,65.666,115.264,64.117,116.327z"/>
	<path fill="#EFC01F" d="M185.67,218.104v25.492H128v-25.492c0-9,5.93-16.6,14.1-19.11c3.61,4.06,8.87,6.61,14.73,6.61
		c5.86,0,11.13-2.55,14.74-6.61C179.73,201.504,185.67,209.104,185.67,218.104z"/>
	<path fill="#FFB69F" d="M61.25,185.854c0,4.67-1.62,8.96-4.33,12.34c-3.62,4.52-9.18,7.41-15.42,7.41
		c-10.91,0-19.75-8.85-19.75-19.75c0-6.95,3.58-13.05,9-16.56c3.09-2.02,6.78-3.19,10.75-3.19
		C52.41,166.104,61.25,174.944,61.25,185.854z"/>
	<path fill="#72C1E8" d="M56.92,198.194c-3.62,4.52-9.18,7.41-15.42,7.41c-10.91,0-19.75-8.85-19.75-19.75
		c0-6.95,3.58-13.05,9-16.56v-17.83c0-4.993-4.047-9.04-9.04-9.04h0c-4.993,0-9.04,4.047-9.04,9.04v92.132h57.66v-30.492
		C70.33,205.354,64.46,198.974,56.92,198.194z"/>
	<path fill="#FFB69F" d="M194.75,185.854c0,4.67,1.62,8.96,4.33,12.34c3.62,4.52,9.18,7.41,15.42,7.41
		c10.91,0,19.75-8.85,19.75-19.75c0-6.95-3.58-13.05-9-16.56c-3.09-2.02-6.78-3.19-10.75-3.19
		C203.59,166.104,194.75,174.944,194.75,185.854z"/>
	<path fill="#FB5C3C" d="M185.67,213.104v30.492h57.66v-92.132c0-4.993-4.047-9.04-9.04-9.04h0c-4.993,0-9.04,4.047-9.04,9.04v17.83
		c5.42,3.51,9,9.61,9,16.56c0,10.9-8.84,19.75-19.75,19.75c-6.24,0-11.8-2.89-15.42-7.41
		C191.54,198.974,185.67,205.354,185.67,213.104z"/>
	<path fill="#F7E4B0" d="M140.706,107.822c-1.352-0.283-2.218-1.607-1.936-2.959c0.219-1.046,0.492-2.1,0.813-3.132
		c0.408-1.318,1.811-2.054,3.128-1.647c1.319,0.409,2.057,1.81,1.647,3.128c-0.273,0.883-0.507,1.782-0.693,2.675
		C143.383,107.233,142.064,108.106,140.706,107.822z M144.933,95.584c-1.13-0.794-1.401-2.354-0.608-3.483
		c1.761-2.505,3.855-4.783,6.227-6.771c8.723-7.311,13.146-16.567,13.146-27.515c0-19.682-15.988-35.693-35.64-35.693
		c-1.381,0-2.5-1.119-2.5-2.5s1.119-2.5,2.5-2.5c22.409,0,40.64,18.255,40.64,40.693c0,12.495-5.024,23.042-14.934,31.347
		c-2.037,1.709-3.837,3.665-5.347,5.814C147.622,96.104,146.065,96.377,144.933,95.584z"/>
	<path d="M86.17,243.59v-20.28c0-1.38-1.12-2.51-2.5-2.51s-2.5,1.13-2.5,2.51v20.28c0,1.38,1.12,2.51,2.5,2.51
		S86.17,244.97,86.17,243.59z"/>
	<path d="M117.16,243.6v-20.29c0-1.38-1.12-2.5-2.49-2.5c-1.38,0-2.5,1.12-2.5,2.5v20.29c0,1.37,1.12,2.49,2.5,2.49
		C116.04,246.09,117.16,244.97,117.16,243.6z"/>
	<path d="M85.76,32.81c-1.222-0.642-2.738-0.185-3.38,1.04c-4.152,7.82-5.97,15.876-5.97,24.22
		c-0.021,19.591,10.17,32.2,18.72,39.33c7.723,6.463,6.93,14.455,6.93,18.87c0,0.007,0.002,0.013,0.002,0.019v26.153
		c0,4.749,3.863,8.612,8.612,8.612h34.649c4.749,0,8.613-3.863,8.613-8.612c0-37.032,0.003-22.797,0.003-26.172
		c0-4.437-0.866-12.313,6.82-18.76c8.6-7.17,18.85-19.87,18.83-39.69c-0.01-28.449-23.13-51.59-51.53-51.59c-0.069,0-0.109,0-0.14,0
		c-11.794,0.021-23.107,4.089-32.28,11.521c-1.07,0.865-1.236,2.449-0.37,3.52c0.84,1.03,2.49,1.2,3.521,0.36
		c8.38-6.79,18.479-10.39,29.21-10.4h0.06c25.518,0,46.53,20.733,46.53,46.59c-0.01,14.271-5.75,26.341-17.04,35.86
		c-6.633,5.554-8.61,12.213-8.61,20.089H130.5V88.44c11.245-1.248,20.021-10.807,20.021-22.379
		c0-11.629-18.495-34.083-20.604-36.604c-1.008-1.2-2.84-1.186-3.836,0c-2.108,2.521-20.604,24.976-20.604,36.604
		c0,11.573,8.776,21.131,20.021,22.379v25.329h-18.44c0-7.978-2.165-14.708-8.72-20.199c-11.22-9.46-16.92-21.409-16.93-35.5
		c0-7.793,1.744-15.01,5.38-21.88C87.429,35.01,87.001,33.484,85.76,32.81z M130.5,38.241c1.744,2.299,3.664,4.944,5.533,7.705
		l-5.533,5.533V38.241z M130.5,58.541l8.319-8.311c3.732,5.997,6.703,12.001,6.703,15.831c0,8.81-6.543,16.102-15.021,17.322V58.541
		z M125.5,38.243V67.14l-11.465-11.465C117.144,49.783,121.734,43.21,125.5,38.243z M111.791,60.501L125.5,74.21v9.173
		C115.381,81.927,107.506,71.496,111.791,60.501z M107.062,118.769c6.755,0-7.99,0,41.875,0v10.326h-14.76
		c-1.381,0-2.5,1.119-2.5,2.5s1.119,2.5,2.5,2.5h14.76v8.347c0,1.992-1.621,3.612-3.613,3.612h-34.649
		c-1.992,0-3.612-1.62-3.612-3.612V118.769z"/>
	<path d="M92.06,28.31c0,0,0,0,0-0.01c0.865-1.049,0.743-2.597-0.34-3.51c-1.03-0.84-2.67-0.69-3.51,0.33
		c-0.01,0-0.01,0.01-0.01,0.01c-0.902,1.088-0.712,2.651,0.34,3.52C89.539,29.491,91.141,29.42,92.06,28.31z"/>
	<path d="M143.83,243.6v-20.3c0-1.37-1.12-2.49-2.5-2.49s-2.5,1.12-2.5,2.49v20.3c0,1.37,1.12,2.49,2.5,2.49
		S143.83,244.97,143.83,243.6z"/>
	<path d="M174.83,243.6v-20.29c0-1.38-1.12-2.5-2.5-2.5s-2.5,1.12-2.5,2.5v20.29c0,1.37,1.12,2.49,2.5,2.49
		S174.83,244.97,174.83,243.6z"/>
	<path d="M201.5,243.6v-20.29c0-1.38-1.12-2.5-2.5-2.5s-2.5,1.12-2.5,2.5v20.29c0,1.37,1.12,2.49,2.5,2.49S201.5,244.97,201.5,243.6
		z"/>
	<path d="M232.5,223.31c0-1.38-1.12-2.5-2.5-2.5s-2.5,1.12-2.5,2.5v20.28c0,1.38,1.12,2.51,2.5,2.51s2.5-1.13,2.5-2.51V223.31z"/>
	<path d="M149.01,165.02c-1.321,0.491-1.927,1.952-1.46,3.21c0.455,1.206,1.807,1.975,3.22,1.471
		c1.341-0.511,1.938-1.986,1.46-3.221C151.76,165.229,150.28,164.54,149.01,165.02z"/>
	<path d="M10.17,243.6c0,1.37,1.12,2.49,2.5,2.49s2.5-1.12,2.5-2.49v-39.24c0-1.369-1.12-2.5-2.5-2.5s-2.5,1.131-2.5,2.5V243.6z"/>
	<circle cx="12.67" cy="194.359" r="2.5"/>
	<path d="M21.71,139.92c-6.36,0-11.54,5.18-11.54,11.54v32.899c0,1.381,1.12,2.5,2.5,2.5s2.5-1.119,2.5-2.5V151.46
		c0.01-3.601,2.939-6.53,6.54-6.54c3.6,0.01,6.53,2.939,6.54,6.54v16.52c-5.571,4.124-9,10.758-9,17.87c0,0.001,0,0.001,0,0.002
		c0,0,0,0.001,0,0.002c0,12.269,9.981,22.25,22.25,22.25c6.299,0,12.2-2.622,16.411-7.233c5.759,1.2,9.919,6.34,9.919,12.229
		c0,12.101,0,19.122,0,30.496v0.004c0,1.38,1.12,2.5,2.5,2.5s2.5-1.12,2.5-2.5c0-0.002,0-0.002,0-0.004v-0.016v-25.477
		c0-7.224,4.328-13.564,10.915-16.218c8.686,8.36,22.358,8.189,30.841,0c6.586,2.65,10.914,8.991,10.914,16.218v25.492
		c0,1.381,1.119,2.5,2.5,2.5s2.5-1.119,2.5-2.5v-25.492c0-7.227,4.328-13.567,10.914-16.218c4.271,4.115,9.897,6.218,15.416,6.218
		c5.605,0,11.237-2.176,15.425-6.218c6.587,2.653,10.915,8.994,10.915,16.218v25.492c0,1.381,1.119,2.5,2.5,2.5s2.5-1.119,2.5-2.5
		c0-11.248,0-18.419,0-30.492c0-5.995,4.182-11.047,9.915-12.23c4.15,4.548,10.08,7.23,16.415,7.23
		c12.269,0,22.25-9.981,22.25-22.25c0-7.039-3.241-13.549-9-17.868v-16.521c0-3.606,2.934-6.54,6.54-6.54s6.54,2.934,6.54,6.54
		v92.132c0,1.381,1.119,2.5,2.5,2.5s2.5-1.119,2.5-2.5v-92.132c0-6.363-5.177-11.54-11.54-11.54s-11.54,5.177-11.54,11.54v13.735
		c-2.605-1.044-5.395-1.596-8.25-1.596c-12.269,0-22.25,9.981-22.25,22.25c0,3.75,0.963,7.442,2.749,10.703
		c-4.659,1.578-8.376,5.037-10.326,9.457c-2.197-3.46-5.334-6.294-9.142-8.136c2.296-3.559,3.548-7.721,3.548-12.028
		c0-11.138-8.206-20.426-18.99-22.01c-1.34-0.2-2.64,0.77-2.83,2.11c-0.213,1.407,0.773,2.639,2.11,2.84
		c8.39,1.229,14.71,8.569,14.71,17.06c0,9.667-7.867,17.25-17.25,17.25c-9.474,0-17.25-7.702-17.25-17.25
		c0-4.09,1.46-8.069,4.12-11.18c0.899-1.05,0.77-2.63-0.28-3.53c-1.01-0.859-2.66-0.729-3.521,0.28
		c-3.43,4.02-5.319,9.14-5.319,14.43c0,4.311,1.256,8.471,3.555,12.029c-4.424,2.139-7.947,5.615-10.135,9.86
		c-2.189-4.244-5.712-7.721-10.135-9.86c2.299-3.561,3.555-7.72,3.555-12.025c0-12.269-9.981-22.25-22.25-22.25
		s-22.25,9.981-22.25,22.25c0,4.303,1.254,8.462,3.549,12.024c-3.813,1.844-6.954,4.682-9.151,8.148
		c-0.748-1.689-1.748-3.271-3.009-4.666c-2.01-2.218-4.532-3.848-7.312-4.796c1.789-3.263,2.753-6.957,2.753-10.71
		c0-12.269-9.981-22.25-22.25-22.25c-2.856,0-5.647,0.552-8.25,1.595V151.46C33.25,145.1,28.069,139.92,21.71,139.92z
		 M214.5,168.604c9.395,0,17.25,7.59,17.25,17.25c0,9.512-7.738,17.25-17.25,17.25c-9.505,0-17.25-7.705-17.25-17.25
		C197.25,176.342,204.988,168.604,214.5,168.604z M99.17,168.604c9.512,0,17.25,7.738,17.25,17.25
		c0,10.2-8.873,18.248-19.082,17.152c-8.784-0.938-15.418-8.363-15.418-17.152C81.92,176.342,89.658,168.604,99.17,168.604z
		 M41.5,168.604c9.512,0,17.25,7.738,17.25,17.25c0,9.527-7.726,17.246-17.25,17.246c-9.49-0.01-17.229-7.749-17.25-17.249
		C24.252,176.364,31.961,168.604,41.5,168.604z"/>
	<path d="M28.5,243.6v-20.3c0-1.37-1.12-2.49-2.5-2.49s-2.5,1.12-2.5,2.49v20.3c0,1.37,1.12,2.49,2.5,2.49S28.5,244.97,28.5,243.6z"
		/>
	<path d="M59.5,243.6v-20.3c0-1.37-1.12-2.49-2.5-2.49s-2.5,1.12-2.5,2.49v20.3c0,1.37,1.12,2.49,2.5,2.49S59.5,244.97,59.5,243.6z"
		/>
</g>
</svg>
