<?xml version="1.0" encoding="utf-8"?>
<!-- Generator: Adobe Illustrator 22.0.0, SVG Export Plug-In . SVG Version: 6.00 Build 0)  -->
<svg version="1.1" xmlns="http://www.w3.org/2000/svg" xmlns:xlink="http://www.w3.org/1999/xlink" x="0px" y="0px"
	 viewBox="0 0 512 512" style="enable-background:new 0 0 512 512;" xml:space="preserve">
<style type="text/css">
	.st0{fill:#EFEFEF;}
	.st1{fill:#EDEDED;}
	.st2{fill:#E1902B;}
	.st3{fill:#827382;}
	.st4{fill:#98CDE6;}
	.st5{clip-path:url(#SVGID_2_);fill:#43B06D;}
	.st6{clip-path:url(#SVGID_2_);fill:#4D917B;}
	.st7{fill:#FFDBC5;}
	.st8{fill:#E8B494;}
	.st9{fill:#DB4646;}
	.st10{fill:#E7AD84;}
	.st11{fill:#9EC853;}
	.st12{fill:#EBB290;}
	.st13{fill:#2961A5;}
	.st14{fill:#D49670;}
	.st15{fill:#4D917B;}
	.st16{fill:#78BEDE;}
	.st17{fill:#D4CDC1;}
	.st18{fill:#A18FA1;}
	.st19{fill:#3D2A3D;}
	.st20{fill:#FF826E;}
	.st21{fill:#E6A585;}
	.st22{fill:#142A7A;}
	.st23{fill:#FFD66C;}
	.st24{fill:#00D3D5;}
	.st25{fill:#B9EAF0;}
	.st26{fill:#EDB87B;}
	.st27{clip-path:url(#SVGID_4_);}
	.st28{fill:#D9904C;}
	.st29{fill:#F7B58D;}
	.st30{fill:#F7C8AB;}
	.st31{fill:#BABABA;}
	.st32{fill:#163A63;}
	.st33{fill:#F5BB47;}
	.st34{fill:#FFE999;}
	.st35{clip-path:url(#SVGID_6_);}
	.st36{fill:#B3B3B3;}
	.st37{fill:#F2C9B1;}
	.st38{clip-path:url(#SVGID_8_);}
	.st39{fill:#F2D7C4;}
	.st40{fill:#5D5660;}
	.st41{fill:#3B2D3F;}
	.st42{fill:#997999;}
	.st43{fill:#170F17;}
	.st44{clip-path:url(#SVGID_10_);}
</style>
<g id="Layer_6">
</g>
<g id="Layer_9">
</g>
<g id="Layer_7">
	<g>
		<g>
			<g>
				<g>
					<rect x="245" y="254" class="st11" width="21" height="150"/>
				</g>
				<g>
					<g>
						<g>
							<path class="st11" d="M149.7,270.1c-3.3,25.7,3,49.7,19.7,66.4c16.7,16.7,40.8,23,66.4,19.7c3.3-25.7-3-49.7-19.7-66.4
								C199.4,273,175.3,266.8,149.7,270.1z"/>
						</g>
					</g>
					<g>
						<g>
							<path class="st11" d="M361.1,270.1c-25.7-3.3-49.7,3-66.4,19.7c-16.7,16.7-23,40.8-19.7,66.4c25.7,3.3,49.7-3,66.4-19.7
								C358.1,319.8,364.3,295.7,361.1,270.1z"/>
						</g>
					</g>
				</g>
			</g>
			<g>
				<path class="st9" d="M335.4,141.6c-0.2-22.6-18.7-40.7-41.2-40.5c-18.5,0.2-34.1,12.7-38.9,29.6c-5.1-16.9-20.9-29.1-39.4-28.9
					c-22.6,0.2-40.7,18.7-40.5,41.2c0.1,12.5,5.8,23.6,14.7,31c0.3,0.4,0.7,0.9,1,1.3l47,55.8c10.4,12.3,27.1,12.2,37.2-0.3l46-56.7
					c1.1-1.3,2-2.6,2.7-3.9C331.1,162.8,335.5,152.7,335.4,141.6z"/>
				<g>
					<g>
						<g>
							<path class="st10" d="M214.2,112.3c-14.2,2.9-24.2,14.2-25.9,28.4c-0.7,5.5,8,5.5,8.7,0c1.3-10.5,9.5-18,19.6-20.1
								C222,119.6,219.6,111.2,214.2,112.3L214.2,112.3z"/>
						</g>
					</g>
				</g>
			</g>
		</g>
	</g>
</g>
</svg>
