<svg xmlns="http://www.w3.org/2000/svg" viewBox="0 0 64 64"><g id="_11-pine_tree" data-name="11-pine tree"><path d="M28.94,57.71l-1.05.7A1.949,1.949,0,0,0,27.01,60H27l-3.32-.83a3.954,3.954,0,0,0-1.37-.1L15,60l4.99-3.33A3.993,3.993,0,0,1,22.21,56H27V48.43A24.272,24.272,0,0,0,32,49a21.97,21.97,0,0,0,3-.22V56h4.79a3.993,3.993,0,0,1,2.22.67L47,60l-8.12-.94L33,60.04v-.16a2.622,2.622,0,0,0-1.79-2.48,2.557,2.557,0,0,0-.82-.13A2.625,2.625,0,0,0,28.94,57.71Z" style="fill:#92563a"/><path d="M33,60.04V61l1,2H31l-4-1V60.07a.17.17,0,0,1,.01-.07,1.949,1.949,0,0,1,.88-1.59l1.05-.7a2.625,2.625,0,0,1,1.45-.44,2.557,2.557,0,0,1,.82.13A2.622,2.622,0,0,1,33,59.88Z" style="fill:#c47952"/><path d="M8,40s9.64,6.45,19,8.43v4.08C15.02,50.14,8,40,8,40Z" style="fill:#944222"/><path d="M56,40S48.19,51.28,35,52.82V48.78C44.94,47.41,56,40,56,40Z" style="fill:#944222"/><path d="M35,48.78A21.97,21.97,0,0,1,32,49a24.272,24.272,0,0,1-5-.57C17.64,46.45,8,40,8,40,12,37,32,1,32,1S52,37,56,40C56,40,44.94,47.41,35,48.78Z" style="fill:#f99d4c"/><path d="M29,54a2,2,0,0,1,2-2h4V48.78A21.97,21.97,0,0,1,32,49a24.272,24.272,0,0,1-5-.57V56A2,2,0,0,0,29,54Z" style="fill:#5d241d"/><path d="M25,57H21.472a2,2,0,0,0-.894.211L15,60l7.31-.93a3.954,3.954,0,0,1,1.37.1L27,60V59A2,2,0,0,0,25,57Z" style="fill:#5d241d"/><path d="M39.79,56H35a2,2,0,0,0,2,2h2.72a1.994,1.994,0,0,1,.549.077L47,60l-4.99-3.33A3.993,3.993,0,0,0,39.79,56Z" style="fill:#c47952"/><path d="M33,60.04v-.16a2.622,2.622,0,0,0-1.79-2.48,2.557,2.557,0,0,0-.82-.13,2.612,2.612,0,0,0-1.413.423A2.854,2.854,0,0,1,30,59.875V61l.447.894A2,2,0,0,0,32.236,63H34l-1-2Z" style="fill:#db996e"/><path d="M26.129,35.862A14.381,14.381,0,0,0,34,38a18.949,18.949,0,0,0,9.618-3.047,2,2,0,0,0,.8-2.431L32,1,25.252,33.775A2,2,0,0,0,26.129,35.862Z" style="fill:#f99d4c"/><path d="M18.778,38.612C21.1,40.39,25.745,43,33,43c8.672,0,16.719-4.97,19.738-7.074C45.765,25.774,32,1,32,1L44.418,32.522a2,2,0,0,1-.8,2.431A18.949,18.949,0,0,1,34,38a14.381,14.381,0,0,1-7.871-2.138,2,2,0,0,1-.877-2.087L32,1,17.809,35.058A3.013,3.013,0,0,0,18.778,38.612Z" style="fill:#f26d24"/><path d="M52.738,35.926C49.719,38.03,41.672,43,33,43c-7.255,0-11.9-2.61-14.222-4.388a3.013,3.013,0,0,1-.969-3.554L32,1S12,37,8,40c0,0,9.64,6.45,19,8.43A24.272,24.272,0,0,0,32,49a21.97,21.97,0,0,0,3-.22C44.94,47.41,56,40,56,40A21.585,21.585,0,0,1,52.738,35.926Z" style="fill:#c35728"/></g></svg>