<svg xmlns="http://www.w3.org/2000/svg" viewBox="0 0 512 512"><title>Plane</title><g id="Plane"><g id="Plane-2" data-name="Plane"><path d="M256,73.8206c-100.6174,0-182.18,81.5707-182.18,182.1708,0,100.6084,81.5625,182.188,182.18,182.188,100.6082,0,182.18-81.5706,182.18-182.188C438.18,155.3831,356.6083,73.8206,256,73.8206Zm88.6373,120.7963-39.4011,37.3014,24.9786,100.6163-14.9067,14.9068-47.68-77.7745-1.099-1.09-49.0518,46.4418c-.2718.2808-.5886.4913-.87.755l-1.5733,35.8075-54.6147-54.6156,35.7975-1.5642c.2637-.2907.4752-.5977.756-.8794l46.4418-49.0517-.396-.3952-78.46-48.3839,14.9067-14.8978,100.16,25.4358,37.7486-39.8672a19.2752,19.2752,0,0,1,27.2637,27.2547Z"/></g></g></svg>