<?xml version="1.0" encoding="iso-8859-1"?>
<!-- Generator: Adobe Illustrator 19.0.0, SVG Export Plug-In . SVG Version: 6.00 Build 0)  -->
<svg xmlns="http://www.w3.org/2000/svg" xmlns:xlink="http://www.w3.org/1999/xlink" version="1.1" id="Capa_1" x="0px" y="0px" viewBox="0 0 512 512" style="enable-background:new 0 0 512 512;" xml:space="preserve">
<path style="fill:#D6D8D8;" d="M214.005,208.91h241.21c10.23,0,18.526,8.295,18.526,18.526v74.21l16.832-4.317  c9.909-2.541,15.885-12.637,13.343-22.548l-41.168-160.512c-2.541-9.91-12.637-15.885-22.548-13.342l-239.656,61.467L214.005,208.91  z"/>
<path style="fill:#CC4444;" d="M24.467,207.553c-2.576,0.661-4.877,1.84-6.841,3.386c5.743-2.931-6.356-2.105,202.757-1.029  l-13.356-49.179C207.024,160.731,24.469,207.553,24.467,207.553z"/>
<path style="fill:#6EDCF9;" d="M416.618,184.844c6.021-1.545,9.652-7.679,8.107-13.702l-3.029-11.814  c-1.545-6.023-7.68-9.653-13.702-8.108l-138.271,35.464c-6.023,1.544-9.652,7.679-8.107,13.702l2.186,8.523h58.985L416.618,184.844z  "/>
<path style="fill:#37CAE2;" d="M424.726,171.142c-3.317-12.937-3.142-12.636-3.942-14.188c0.273,5.626-3.403,10.868-9.069,12.356  l-148.098,38.877l0.185,0.721h58.985l93.831-24.065C422.64,183.299,426.271,177.164,424.726,171.142z"/>
<path style="fill:#E3E5E5;" d="M455.216,208.91H210.455v202.76h244.76c10.23,0,18.526-8.294,18.526-18.526V227.435  C473.742,217.205,465.446,208.91,455.216,208.91z"/>
<path style="fill:#F95C4B;" d="M26.026,208.91c-10.232,0-18.526,8.295-18.526,18.526v165.707c0,10.232,8.294,18.526,18.526,18.526  h188.468V208.91H26.026z"/>
<path style="fill:#F44B34;" d="M27.626,393.142V227.435c0-10.23,8.294-18.526,18.526-18.526H26.026  c-10.232,0-18.526,8.295-18.526,18.526v165.707c0,10.232,8.294,18.526,18.526,18.526h20.126  C35.92,411.669,27.626,403.375,27.626,393.142z"/>
<path style="fill:#6EDCF9;" d="M422.783,273.08c0,6.218-5.039,11.258-11.258,11.258H268.779c-6.218,0-11.258-5.04-11.258-11.258  v-12.195c0-6.218,5.04-11.257,11.258-11.257h142.745c6.219,0,11.258,5.039,11.258,11.257L422.783,273.08L422.783,273.08z"/>
<path style="fill:#37CAE2;" d="M411.524,266.982H268.779c-5.329,0-9.781-3.706-10.949-8.678c-0.195,0.83-0.309,1.69-0.309,2.58  v12.195c0,6.218,5.04,11.258,11.258,11.258h142.745c6.219,0,11.258-5.04,11.258-11.258c0-13.207,0.102-13.025-0.309-14.776  C421.306,263.276,416.854,266.982,411.524,266.982z"/>
<path style="fill:#F97878;" d="M82.179,268.696l38.289,18.312l23.654-23.653c4.58-4.58,12.006-4.58,16.585,0  c4.58,4.579,4.58,12.004,0,16.585l-23.653,23.653l18.312,38.288c2.541,5.31,0.75,11.682-4.185,14.892  c-4.87,3.166-11.418,2.326-15.31-2.213l-22.941-26.844l-17.337,17.337l2.929,13.296c2.526,11.454-11.524,19.039-19.753,10.809  c-3.038-3.038-2.994-5.045-5.852-18.016c-12.982-2.86-14.978-2.813-18.015-5.851c-8.227-8.227-0.648-22.278,10.809-19.754  l13.295,2.93l17.337-17.337l-26.843-22.94c-4.408-3.736-5.464-10.308-2.212-15.309C70.499,267.946,76.87,266.156,82.179,268.696z"/>
<path style="fill:#FC9090;" d="M89.594,372.325c6.325-1.394,10.323-7.651,8.928-13.977l-2.929-13.296l17.336-17.337  c0.466,0.546,23.064,27.019,23.57,27.524c9.252,9.254,24.527-1.526,18.866-13.359l-18.312-38.288l23.653-23.653  c3.528-3.528,4.327-8.74,2.419-13.044c-5.403,0.028-10.006,4.426-10.006,4.426l-80.201,79.821l2.7,12.253  C77.014,369.721,83.267,373.718,89.594,372.325z"/>
<path d="M67.326,318.213c-10.353-2.282-20.632,4.285-22.915,14.642c-2.314,10.511,4.392,20.654,14.641,22.913l7.573,1.668  c1.693,7.685,2.085,12.27,6.841,17.025c13.51,13.512,36.52,1.039,32.381-17.726l-2.045-9.284l8.696-8.695l17.679,20.687  c6.368,7.429,17.191,8.755,25.092,3.618c8.063-5.243,11.012-15.74,6.862-24.414l-16.022-33.502l19.901-19.9  c12.16-12.16,3.382-32.823-13.594-32.823c-5.136,0-9.964,2-13.597,5.631l-19.902,19.901l-33.5-16.022  c-8.675-4.152-19.173-1.2-24.416,6.863c-5.276,8.114-3.602,18.977,3.627,25.099l20.678,17.671l-8.696,8.696L67.326,318.213z   M84.312,333.771c18.509-18.508,19.695-18.679,19.528-22.934c-0.17-4.369-0.657-3.729-29.488-28.368  c-3.688-3.142,0.142-9.136,4.591-7.008l0,0l38.289,18.313c2.868,1.372,6.291,0.786,8.539-1.462  c25.534-25.533,24.252-24.892,26.644-24.892c2.336,0,4.226,1.89,4.226,4.227c0,2.335,0.856,0.894-24.892,26.642  c-2.249,2.249-2.835,5.671-1.463,8.539l18.312,38.29c2.034,4.25-3.466,8.149-6.796,4.817c-0.182-0.181-23.003-26.897-23.171-27.093  c-2.815-3.295-7.885-3.551-11.005-0.432l-17.337,17.337c-1.81,1.811-2.572,4.418-2.021,6.917l2.929,13.298  c1.202,5.445-7.05,7.28-8.255,1.817l-2.7-12.252c-0.628-2.854-2.857-5.082-5.71-5.711c-13.248-2.919-13.172-2.678-14.326-3.83  c-2.663-2.663-0.775-7.225,2.981-7.225c0.74,0,0.264-0.043,14.207,3.029C79.896,336.343,82.502,335.58,84.312,333.771z"/>
<path d="M430.283,340.669c0-4.143-3.357-7.5-7.5-7.5H257.521c-4.143,0-7.5,3.357-7.5,7.5s3.357,7.5,7.5,7.5h165.262  C426.926,348.169,430.283,344.812,430.283,340.669z"/>
<path d="M257.521,360.734c-4.143,0-7.5,3.357-7.5,7.5c0,4.143,3.357,7.5,7.5,7.5h106.984c4.143,0,7.5-3.357,7.5-7.5  c0-4.143-3.357-7.5-7.5-7.5H257.521z"/>
<path d="M257.521,320.604h165.262c4.143,0,7.5-3.357,7.5-7.5s-3.357-7.5-7.5-7.5H257.521c-4.143,0-7.5,3.357-7.5,7.5  S253.378,320.604,257.521,320.604z"/>
<path d="M268.779,291.838h142.745c10.343,0,18.759-8.415,18.759-18.759v-12.195c0-10.343-8.415-18.758-18.759-18.758H268.779  c-10.343,0-18.759,8.414-18.759,18.758v12.195C250.02,283.422,258.436,291.838,268.779,291.838z M265.021,260.884  c0-2.071,1.686-3.757,3.758-3.757h142.745c2.072,0,3.758,1.686,3.758,3.757v12.195c0,2.072-1.686,3.758-3.758,3.758H268.779  c-2.072,0-3.758-1.686-3.758-3.758V260.884z"/>
<path d="M511.182,272.917C511.182,272.916,511.182,272.916,511.182,272.917l-41.17-160.512c-1.727-6.734-5.972-12.393-11.955-15.934  c-5.983-3.539-12.985-4.541-19.721-2.812C-11.011,208.91,19.52,200.227,13.673,204.533C5.537,208.939,0,217.552,0,227.435v28.569  c0,4.143,3.358,7.5,7.5,7.5s7.5-3.357,7.5-7.5v-28.569c0-6.203,5.103-11.025,11.025-11.025h180.967v187.759H26.026  c-6.08,0-11.025-4.946-11.025-11.025V291.006c0-4.143-3.358-7.5-7.5-7.5s-7.5,3.357-7.5,7.5v102.137  c0,14.352,11.675,26.026,26.026,26.026h361.755c4.143,0,7.5-3.357,7.5-7.5c0-4.143-3.357-7.5-7.5-7.5H221.994V216.409  c24.364,0,210.912,0,233.222,0c6.079,0,11.025,4.946,11.025,11.025v74.21v91.497c0,6.079-4.946,11.025-11.025,11.025h-32.433  c-4.143,0-7.5,3.357-7.5,7.5c0,4.143,3.357,7.5,7.5,7.5h32.433c14.352,0,26.026-11.675,26.026-26.026v-85.678l11.194-2.872  C506.337,301.028,514.746,286.819,511.182,272.917z M201.624,169.858l8.092,31.55H78.612L201.624,169.858z M269.622,201.408  l-0.74-2.886c-0.514-2.004,0.689-4.057,2.706-4.574c147.604-37.857,139.152-36.219,141.117-35.058  c1.741,1.03,1.492,1.386,4.756,14.115c0.515,2.007-0.699,4.059-2.707,4.573h0.001l-92.913,23.831H269.622z M488.71,290.063  l-7.468,1.915v-64.542c0-14.352-11.675-26.026-26.026-26.026h-72.995l36.261-9.3c0,0,0,0,0.001,0  c10.018-2.57,16.079-12.812,13.508-22.83l-3.029-11.813c-2.58-10.059-12.806-16.086-22.83-13.51l-138.271,35.462  c-9.675,2.482-15.753,12.099-13.682,21.991h-28.977l-9.048-35.277l225.909-57.941c2.855-0.731,5.821-0.308,8.354,1.191  c2.534,1.5,4.333,3.896,5.064,6.749l41.17,160.512C498.161,282.532,494.599,288.553,488.71,290.063z"/>
<g>
</g>
<g>
</g>
<g>
</g>
<g>
</g>
<g>
</g>
<g>
</g>
<g>
</g>
<g>
</g>
<g>
</g>
<g>
</g>
<g>
</g>
<g>
</g>
<g>
</g>
<g>
</g>
<g>
</g>
</svg>
