<?xml version="1.0" encoding="utf-8"?>
<!-- Generator: Adobe Illustrator 24.0.0, SVG Export Plug-In . SVG Version: 6.00 Build 0)  -->
<svg version="1.1" xmlns="http://www.w3.org/2000/svg" xmlns:xlink="http://www.w3.org/1999/xlink" x="0px" y="0px"
	 viewBox="0 0 256 256" enable-background="new 0 0 256 256" xml:space="preserve">
<g id="Layer_2">
</g>
<g id="Layer_1">
	<g>
	</g>
	<g>
		<path fill="#72C2E9" d="M251.12,55.29v141.14c0,5.52-4.48,10-10,10h-95.79l1.5-30.31l1.65-33.48l2.58-52.48
			c0.72-12.86-9.62-24.24-23.06-24.24c-13.2,0-23.72,11.05-23.06,24.24l2.56,52.03l1.66,33.76l1.51,30.48H14.88
			c-5.52,0-10-4.48-10-10V55.29c0-5.52,4.48-10.005,10-10.005h226.24C246.64,45.285,251.12,49.77,251.12,55.29z"/>
		<path fill="#4BA5C8" d="M234.5,164.14l-0.59,26.07c-0.03,1.18-1.06,2.08-2.23,1.94l-79.17-9.32l-1.17,23.6h-6.01l1.5-30.31
			l1.65-33.48l2.58-52.48c0.72-12.86-9.62-24.24-23.06-24.24c-13.2,0-23.72,11.05-23.06,24.24l2.56,52.03l1.66,33.76l1.51,30.48
			h-6.01l-1.18-23.77l-79.89,8.83c-1.19,0.13-2.22-0.79-2.22-1.98V164.1c0-0.88,0.57-1.65,1.41-1.91l78.5-24.33l-2.33-47.4
			c-0.83-16.64,12.4-30.54,29.05-30.54c17.13,0,29.95,14.52,29.05,30.58l-2.35,47.81l78.38,23.87
			C233.94,162.44,234.52,163.24,234.5,164.14z"/>
		<polygon fill="#EFEFEF" points="109.16,175.95 102.19,176.77 26.7,185.66 26.7,167.69 100.6,144.37 107.5,142.19 		"/>
		<polygon fill="#EFEFEF" points="227.86,167.69 227.86,185.66 153.8,176.94 146.83,176.12 148.48,142.64 155.38,144.82 		"/>
		<polygon fill="#AFAFAF" points="107.5,142.19 109.16,175.95 102.19,176.77 102.17,176.3 100.6,144.37 		"/>
		<polygon fill="#AFAFAF" points="155.38,144.82 153.82,176.46 153.8,176.94 146.83,176.12 148.48,142.64 		"/>
		<path fill="#EFEFEF" d="M181.3,250.25L128,238.66l-53.3,11.59l6.27-19l30.42-10.2l-0.72-14.62l-1.51-30.48l-1.66-33.76
			l-2.56-52.03c-0.66-13.19,9.86-24.24,23.06-24.24c13.44,0,23.78,11.38,23.06,24.24l-2.58,52.48l-1.65,33.48l-1.5,30.31
			l-0.72,14.62l30.42,10.2L181.3,250.25z"/>
		<path fill="#FC5D3D" d="M171.825,16.614v28.671h-14.123V19.873H98.298v25.412H84.176V16.614c0-6,4.864-10.864,10.864-10.864
			h65.921C166.961,5.75,171.825,10.614,171.825,16.614z"/>
		<path fill="#7D7B79" d="M55.57,31.25H35.32c-2.761,0-5,2.239-5,5v9.035h30.25V36.25C60.57,33.489,58.331,31.25,55.57,31.25z"/>
		<path fill="#7D7B79" d="M220.68,31.25h-20.25c-2.761,0-5,2.239-5,5v9.035h30.25V36.25C225.68,33.489,223.441,31.25,220.68,31.25z"
			/>
		<g>
			<path fill="#C5E5FE" d="M241.12,198.93h-85.283c-1.381,0-2.5-1.119-2.5-2.5s1.119-2.5,2.5-2.5h82.783V71.29
				c0-1.381,1.119-2.5,2.5-2.5s2.5,1.119,2.5,2.5v125.14C243.62,197.811,242.501,198.93,241.12,198.93z M241.12,63.79
				c-1.381,0-2.5-1.119-2.5-2.5v-6c0-1.381,1.119-2.5,2.5-2.5s2.5,1.119,2.5,2.5v6C243.62,62.671,242.501,63.79,241.12,63.79z"/>
		</g>
		<g>
			<path fill="#C5E5FE" d="M100.162,198.93h-69c-1.381,0-2.5-1.119-2.5-2.5s1.119-2.5,2.5-2.5h69c1.381,0,2.5,1.119,2.5,2.5
				S101.543,198.93,100.162,198.93z M21.162,198.93H14.88c-1.381,0-2.5-1.119-2.5-2.5s1.119-2.5,2.5-2.5h6.282
				c1.381,0,2.5,1.119,2.5,2.5S22.543,198.93,21.162,198.93z"/>
		</g>
		<path d="M14.88,208.93h93.41l0.51,10.35l-28.62,9.6c-0.75,0.25-1.34,0.84-1.58,1.59l-6.28,19c-0.279,0.86-0.09,1.78,0.521,2.45
			c0.47,0.53,1.15,0.83,1.85,0.83c0.181,0,0.36-0.02,0.54-0.06L128,241.22l52.77,11.47c0.87,0.19,1.79-0.11,2.391-0.77
			c0.609-0.67,0.8-1.59,0.51-2.45l-6.271-19c-0.239-0.75-0.83-1.34-1.58-1.59l-28.619-9.6l0.51-10.35h93.41
			c6.893,0,12.5-5.607,12.5-12.5V55.29c0-6.896-5.607-12.505-12.5-12.505h-12.94V36.25c0-4.13-3.37-7.5-7.5-7.5h-20.25
			c-4.13,0-7.5,3.37-7.5,7.5v6.535h-18.61V16.61c0-7.36-5.989-13.36-13.359-13.36h-8.811c-1.38,0-2.5,1.12-2.5,2.5s1.12,2.5,2.5,2.5
			h8.811c4.6,0.01,8.35,3.76,8.359,8.36v26.17H160.2V19.87c0-1.355-1.086-2.5-2.5-2.5H98.3c-1.367,0-2.5,1.111-2.5,2.5v22.91h-9.13
			V16.61c0.01-4.6,3.77-8.35,8.37-8.36h37.109c1.381,0,2.5-1.12,2.5-2.5s-1.119-2.5-2.5-2.5H95.04c-7.37,0-13.36,6-13.36,13.36
			v26.175h-18.61V36.25c0-4.13-3.369-7.5-7.5-7.5h-20.25c-4.13,0-7.5,3.37-7.5,7.5v6.535H14.88c-6.893,0-12.5,5.61-12.5,12.505
			v141.14C2.38,203.323,7.987,208.93,14.88,208.93z M197.93,36.25c0-1.38,1.12-2.5,2.5-2.5h20.25c1.38,0,2.5,1.12,2.5,2.5v6.53
			h-25.25V36.25z M32.819,36.25c0-1.38,1.12-2.5,2.5-2.5h20.25c1.37,0,2.5,1.12,2.5,2.5v6.53h-25.25V36.25z M106.55,173.74
			l-77.35,9.11v-13.33l75.96-23.97L106.55,173.74z M150.819,146l74.54,23.52v13.33l-75.92-8.94L150.819,146z M100.8,22.37h54.4
			v20.415h-54.4V22.37z M7.38,55.29c0-4.139,3.364-7.505,7.5-7.505h226.24c4.136,0,7.5,3.367,7.5,7.505v141.14
			c0,4.136-3.364,7.5-7.5,7.5h-93.163l1.233-25.018c0.185,0.022,78.483,9.248,78.669,9.248c1.413,0,2.5-1.157,2.5-2.5v-17.97
			c0-1.1-0.699-2.06-1.75-2.39l-77.542-24.46l2.492-50.56c0.665-14.911-11.105-26.839-25.56-26.86
			c-14.403,0.01-26.253,11.991-25.561,26.87l1.091,22.2c0.069,1.37,1.22,2.44,2.619,2.37c1.381-0.07,2.45-1.24,2.381-2.62v-0.01
			l-1.091-22.19C106.85,78.266,116.311,68.441,128,68.42c11.639,0.021,21.169,9.73,20.56,21.61l-6.45,130.9
			c-0.05,1.11,0.65,2.13,1.71,2.49l29.23,9.8l4.5,13.66l-49.02-10.66c-0.351-0.08-0.711-0.08-1.061,0l-49.03,10.66l4.511-13.66
			l29.229-9.8c1.061-0.36,1.76-1.38,1.71-2.49l-4.38-88.71c-0.07-1.38-1.2-2.45-2.62-2.38c-1.385,0.083-2.432,1.227-2.37,2.62
			l0.391,7.93L25.95,165.3c-1.051,0.33-1.75,1.29-1.75,2.39v17.97c0,1.425,1.228,2.656,2.79,2.48l79.811-9.398l1.242,25.189H14.88
			c-4.136,0-7.5-3.364-7.5-7.5V55.29z"/>
		<circle cx="142.149" cy="5.75" r="2.5"/>
		<path d="M106.52,124.85c1.479,0,2.563-1.22,2.5-2.62c-0.069-1.37-1.21-2.47-2.62-2.37c-1.38,0.06-2.439,1.24-2.38,2.61
			C104.09,123.81,105.189,124.85,106.52,124.85z"/>
	</g>
</g>
</svg>
